<svg width="17" height="16" viewBox="0 0 17 16" fill="none" xmlns="http://www.w3.org/2000/svg">
<path d="M2.83335 4.09524V12.6446L6.42089 11.1975L10.6709 13.1975L14.1667 11.7875V3.2381L15.0896 2.8658C15.2695 2.79328 15.4777 2.87166 15.5547 3.04088C15.5736 3.08237 15.5834 3.12704 15.5834 3.17218V12.6667L10.625 14.6667L6.37502 12.6667L1.91037 14.4675C1.73058 14.5401 1.52238 14.4617 1.44532 14.2925C1.42643 14.251 1.41669 14.2063 1.41669 14.1611V4.66667L2.83335 4.09524ZM11.5052 7.49507L8.50002 10.3235L5.49482 7.49507C3.83509 5.933 3.83509 3.40034 5.49482 1.83824C7.15454 0.276147 9.8455 0.276147 11.5052 1.83824C13.165 3.40034 13.165 5.933 11.5052 7.49507ZM8.50002 8.43794L10.5035 6.55229C11.61 5.51089 11.61 3.82245 10.5035 2.78105C9.39698 1.73966 7.60306 1.73966 6.49655 2.78105C5.39007 3.82245 5.39007 5.51089 6.49655 6.55229L8.50002 8.43794Z" fill="black"/>
</svg>
