<svg width="50" height="46" viewBox="0 0 50 46" fill="none" xmlns="http://www.w3.org/2000/svg">
<path d="M38.3106 28.1145C36.6145 26.6153 34.5562 25.4189 32.2654 24.6006C29.9746 23.7823 27.5009 23.3598 25.0001 23.3598C22.4993 23.3598 20.0255 23.7823 17.7347 24.6006C15.4439 25.4189 13.3856 26.6153 11.6895 28.1145C11.4276 28.3507 11.2811 28.6571 11.2778 28.9756V34.1422C11.2834 34.4818 11.4526 34.806 11.749 35.0445C12.0453 35.283 12.4449 35.4167 12.8612 35.4167H37.1389C37.5589 35.4167 37.9616 35.2806 38.2585 35.0384C38.5555 34.7961 38.7223 34.4676 38.7223 34.125V28.9584C38.7139 28.6458 38.5677 28.3463 38.3106 28.1145Z" fill="white"/>
<path d="M25 21.6389C29.0807 21.6389 32.3889 18.9401 32.3889 15.6111C32.3889 12.282 29.0807 9.58331 25 9.58331C20.9192 9.58331 17.6111 12.282 17.6111 15.6111C17.6111 18.9401 20.9192 21.6389 25 21.6389Z" fill="white"/>
<path d="M49.5 23C49.5 35.388 38.571 45.5 25 45.5C11.429 45.5 0.5 35.388 0.5 23C0.5 10.612 11.429 0.5 25 0.5C38.571 0.5 49.5 10.612 49.5 23Z" stroke="white"/>
</svg>
