<svg width="23" height="20" viewBox="0 0 23 20" fill="none" xmlns="http://www.w3.org/2000/svg">
<path d="M18.1281 14.011L22.9714 18.1007L21.3713 19.4522L16.5291 15.3615C14.7274 16.5814 12.4865 17.2449 10.1773 17.2421C4.55945 17.2421 0 13.3912 0 8.64626C0 3.90135 4.55945 0.050415 10.1773 0.050415C15.7952 0.050415 20.3547 3.90135 20.3547 8.64626C20.358 10.5966 19.5724 12.4893 18.1281 14.011ZM15.8597 13.3023C17.2945 12.0557 18.0959 10.3849 18.093 8.64626C18.093 4.95291 14.5502 1.9606 10.1773 1.9606C5.80447 1.9606 2.26163 4.95291 2.26163 8.64626C2.26163 12.3396 5.80447 15.3319 10.1773 15.3319C12.2358 15.3343 14.214 14.6575 15.6901 13.4456L15.8597 13.3023Z" fill="white"/>
</svg>
