<svg width="40" height="31" viewBox="0 0 40 31" fill="none" xmlns="http://www.w3.org/2000/svg">
<path d="M20.4203 3.81841H37.1919C38.2708 3.81841 39.1453 4.56301 39.1453 5.4815V28.7646C39.1453 29.6832 38.2708 30.4277 37.1919 30.4277H2.03056C0.951728 30.4277 0.0771484 29.6832 0.0771484 28.7646V2.15533C0.0771484 1.23684 0.951728 0.492249 2.03056 0.492249H16.5135L20.4203 3.81841ZM15.7044 12.9654C15.7044 11.5876 14.3926 10.4707 12.7743 10.4707C11.156 10.4707 9.84419 11.5876 9.84419 12.9654C9.84419 14.3431 11.156 15.46 12.7743 15.46C14.3926 15.46 15.7044 14.3431 15.7044 12.9654ZM31.3317 23.7754L23.518 13.7969L9.84419 23.7754H31.3317Z" fill="black"/>
</svg>
